# xmcd
#
# Track frame offsets: 
#        150
#        15764
#        31313
#        45681
#        62145
#        76870
#        89726
#        104009
#        119326
#        136169
#        150680
#
# Disc length: 2215 seconds
#
# Revision: 0
# Processed by: cddbd v1.5.2PL0 Copyright (c) Steve Scherf et al.
# Submitted via: ExactAudioCopy v0.95b4
#
DISCID=8608a50b
DTITLE=Kevin Fowler - Chippin' Away
DYEAR=2011
DGENRE=Country
TTITLE0=That Girl
TTITLE1=Hell Yeah I Like Beer
TTITLE2=Here's To Me And You
TTITLE3=Daddies And Daughters
TTITLE4=Beer Money
TTITLE5=Girl In A Truck
TTITLE6=Borderline Crazy
TTITLE7=Big River
TTITLE8=Do That With You Gone
TTITLE9=Chippin' Away
TTITLE10=Knocked Up Live
EXTD=
EXTT0=
EXTT1=
EXTT2=
EXTT3=
EXTT4=
EXTT5=
EXTT6=
EXTT7=
EXTT8=
EXTT9=
EXTT10=
PLAYORDER=
